<svg width="40" height="49" viewBox="0 0 40 49" fill="none" xmlns="http://www.w3.org/2000/svg">
<path d="M32.244 44.6014L26.1196 37.5704L26.3555 42.3925L23.2837 45.9741L32.244 44.6014Z" fill="#F5F5F7"/>
<path d="M27.1003 40.7131L27.0115 40.6969L26.9123 40.6775L26.7101 40.6364L26.2999 40.5484C26.0254 40.488 25.7496 40.4235 25.4742 40.3568C24.9236 40.2229 24.3727 40.0782 23.8245 39.9244C22.7275 39.6162 21.6409 39.2707 20.5647 38.8879C19.4923 38.5053 18.4302 38.0836 17.3918 37.6177C16.3534 37.1517 15.3345 36.6416 14.3527 36.0786C13.3708 35.5198 12.4263 34.8962 11.5251 34.2119C10.6308 33.5346 9.80028 32.7747 9.04413 31.9419C8.29356 31.1179 7.65146 30.1984 7.1338 29.2063C6.62076 28.2118 6.26773 27.14 6.08807 26.0312C6.0423 25.7542 6.01446 25.4694 5.99387 25.184C5.97327 24.8987 5.96213 24.6131 5.95844 24.3266C5.9534 23.751 5.9813 23.1754 6.04199 22.6027C6.16619 21.4498 6.40127 20.3114 6.74387 19.2041C7.09003 18.086 7.51747 16.9953 8.02267 15.941C8.5304 14.8802 9.0974 13.8494 9.72088 12.8539C10.9669 10.8557 12.4076 8.97638 13.967 7.20225C14.747 6.31561 15.5566 5.45605 16.3958 4.62354C16.8153 4.20762 17.2416 3.79878 17.6748 3.39701C18.1087 2.99675 18.5485 2.60198 19.0025 2.22395C18.534 2.5833 18.0787 2.96019 17.6284 3.34338C17.1782 3.72656 16.7361 4.11977 16.2995 4.51948C15.4273 5.31933 14.5812 6.14895 13.7613 7.00833C12.1249 8.72654 10.5975 10.5619 9.25215 12.5395C8.57614 13.5292 7.95657 14.5574 7.39652 15.6188C6.83146 16.687 6.34559 17.7962 5.94297 18.9372C5.53644 20.0885 5.24167 21.277 5.06289 22.4857C4.97496 23.0943 4.92168 23.7075 4.90332 24.3222C4.89299 24.6298 4.89323 24.9383 4.90404 25.2477C4.91426 25.5567 4.93505 25.8642 4.95864 26.1777C5.06799 27.4331 5.3741 28.662 5.86542 29.8178C6.35942 30.9703 6.99859 32.0523 7.76699 33.0369C8.52736 34.0131 9.37499 34.9157 10.2991 35.7333C11.215 36.5441 12.1824 37.2929 13.1952 37.9749C14.2016 38.658 15.2427 39.283 16.3059 39.8602C17.3691 40.4374 18.4542 40.9673 19.5558 41.4577C20.6574 41.948 21.7749 42.3986 22.9079 42.8117C23.4744 43.0177 24.0453 43.2147 24.6208 43.4027C24.9085 43.4969 25.198 43.5878 25.4895 43.6757L25.9318 43.8036L26.1556 43.8675L26.2704 43.8989L26.3955 43.9323L27.1003 40.7131Z" fill="#F5F5F7"/>
</svg>
