<svg width="22" height="22" viewBox="0 0 22 22" fill="none" xmlns="http://www.w3.org/2000/svg">
<path d="M17.7418 4.17227C15.9414 2.36758 13.5437 1.375 10.9957 1.375C5.73633 1.375 1.45664 5.65469 1.45664 10.9141C1.45664 12.5941 1.89492 14.2355 2.72852 15.6836L1.375 20.625L6.43242 19.2973C7.82461 20.0578 9.39297 20.4574 10.9914 20.4574H10.9957C16.2508 20.4574 20.625 16.1777 20.625 10.9184C20.625 8.37031 19.5422 5.97695 17.7418 4.17227ZM10.9957 18.8504C9.56914 18.8504 8.17266 18.468 6.95664 17.7461L6.66875 17.5742L3.66953 18.3605L4.46875 15.4344L4.27969 15.1336C3.48477 13.8703 3.06797 12.4137 3.06797 10.9141C3.06797 6.54414 6.62578 2.98633 11 2.98633C13.1184 2.98633 15.1078 3.81133 16.6031 5.31094C18.0984 6.81055 19.018 8.8 19.0137 10.9184C19.0137 15.2926 15.3656 18.8504 10.9957 18.8504ZM15.3441 12.9121C15.1078 12.7918 13.9348 12.216 13.7156 12.1387C13.4965 12.057 13.3375 12.0184 13.1785 12.259C13.0195 12.4996 12.5641 13.0324 12.4223 13.1957C12.2848 13.3547 12.143 13.3762 11.9066 13.2559C10.5059 12.5555 9.58633 12.0055 8.6625 10.4199C8.41758 9.99883 8.90742 10.0289 9.36289 9.11797C9.44023 8.95898 9.40156 8.82148 9.34141 8.70117C9.28125 8.58086 8.8043 7.40781 8.60664 6.93086C8.41328 6.4668 8.21563 6.53125 8.06953 6.52266C7.93203 6.51406 7.77305 6.51406 7.61406 6.51406C7.45508 6.51406 7.19727 6.57422 6.97812 6.81055C6.75898 7.05117 6.14453 7.62695 6.14453 8.8C6.14453 9.97305 6.99961 11.1074 7.11563 11.2664C7.23594 11.4254 8.7957 13.8316 11.1891 14.8672C12.7016 15.5203 13.2945 15.5762 14.0508 15.4645C14.5105 15.3957 15.4602 14.8887 15.6578 14.3301C15.8555 13.7715 15.8555 13.2945 15.7953 13.1957C15.7395 13.0883 15.5805 13.0281 15.3441 12.9121Z" fill="white"/>
</svg>
